<?xml version="1.0" standalone="no"?>
<!DOCTYPE svg PUBLIC "-//W3C//DTD SVG 20010904//EN"
 "http://www.w3.org/TR/2001/REC-SVG-20010904/DTD/svg10.dtd">
<svg version="1.0" xmlns="http://www.w3.org/2000/svg"
 width="800.000000pt" height="800.000000pt" viewBox="0 0 800.000000 800.000000"
 preserveAspectRatio="xMidYMid meet">
<metadata>
Created by potrace 1.14, written by Peter Selinger 2001-2017
</metadata>
<g transform="translate(0.000000,800.000000) scale(0.100000,-0.100000)"
fill="#000000" stroke="none">
<path d="M1107 7733 c-2 -5 -3 -125 -2 -269 l1 -261 -279 0 c-153 -1 -281 -3
-284 -7 -3 -3 -6 -123 -6 -266 1 -234 -1 -260 -16 -261 -9 -1 -128 -2 -266 -3
l-250 -1 0 -1080 0 -1080 255 -1 c140 -1 260 -2 266 -3 9 -1 12 -134 12 -508
0 -280 1 -527 1 -550 l1 -43 264 0 c202 0 265 -3 268 -12 2 -7 3 -116 3 -243
l-1 -230 300 -5 300 -5 0 -257 0 -258 228 0 228 0 0 -269 0 -268 238 -1 c130
0 252 -1 270 -1 l32 -1 0 -267 0 -268 260 1 c235 1 261 0 259 -15 -1 -9 -1
-130 0 -268 l1 -253 268 0 267 0 0 -265 0 -265 285 0 285 0 -2 265 -2 265 258
0 c238 0 259 1 263 18 2 9 3 133 2 275 -1 255 -1 257 20 258 12 0 127 1 258 1
211 0 237 2 240 16 2 10 3 124 3 255 l0 238 25 6 c14 4 138 7 275 7 l250 1 2
240 c0 132 2 252 2 268 l1 27 265 0 c146 0 265 3 266 8 0 4 1 121 2 259 l0
253 261 2 260 3 1 265 0 265 263 1 c145 1 265 4 268 7 2 2 4 240 4 528 l0 524
260 0 260 0 -2 1080 -3 1080 -255 0 -255 0 -5 269 -5 269 -265 1 -265 1 0 265
-1 265 -1073 0 -1074 0 1 -266 0 -266 -259 1 c-166 1 -259 -3 -260 -9 0 -5 -1
-127 -1 -270 l-1 -260 -268 0 -269 0 0 268 c0 147 -3 267 -7 268 -5 0 -122 1
-260 1 l-253 1 0 268 0 269 -1054 0 c-580 0 -1056 -3 -1059 -7z m1293 -920 c1
-76 1 -149 0 -163 0 -14 -2 -83 -3 -155 l-2 -129 -280 -1 -280 0 -3 -481 -2
-481 -290 0 -290 0 0 76 c0 42 -2 262 -3 489 l-2 412 215 1 c118 0 247 1 285
1 l71 0 -1 277 c-1 152 0 279 2 284 2 4 134 7 293 7 l289 0 1 -137z"/>
</g>
</svg>
